<?xml version="1.0" standalone="no"?>
<!DOCTYPE svg PUBLIC "-//W3C//DTD SVG 20010904//EN"
 "http://www.w3.org/TR/2001/REC-SVG-20010904/DTD/svg10.dtd">
<svg version="1.0" xmlns="http://www.w3.org/2000/svg"
 width="512.000000pt" height="512.000000pt" viewBox="0 0 512.000000 512.000000"
 preserveAspectRatio="xMidYMid meet">

<g transform="translate(0.000000,512.000000) scale(0.100000,-0.100000)"
fill="#e0d207" stroke="none">
<path d="M2315 4434 c-22 -8 -116 -28 -210 -44 -195 -33 -248 -50 -400 -124
-398 -195 -731 -539 -930 -961 -122 -257 -171 -460 -182 -740 -6 -185 9 -328
57 -522 144 -588 583 -1113 1137 -1357 541 -238 1146 -214 1651 67 460 255
845 710 1001 1182 73 221 85 300 86 555 0 227 -6 286 -46 455 -67 287 -212
607 -368 810 -308 401 -734 619 -1334 680 -187 19 -409 19 -462 -1z m530 -74
c765 -132 1296 -586 1479 -1260 51 -191 69 -321 69 -510 -1 -286 -42 -495
-150 -758 -129 -316 -365 -599 -658 -790 -228 -149 -500 -253 -790 -302 -114
-19 -154 -22 -325 -17 -161 4 -214 10 -301 30 -353 84 -618 230 -888 491 -393
381 -612 949 -562 1456 23 232 79 425 186 645 153 317 374 571 656 757 204
135 334 187 574 229 98 17 195 38 214 45 53 21 340 11 496 -16z"/>
<path d="M2025 3542 c-33 -2 -63 -9 -67 -15 -4 -7 -8 -221 -8 -477 -1 -423 -6
-679 -26 -1297 l-7 -211 34 -21 c31 -19 49 -21 231 -21 108 1 211 5 228 10 53
15 59 32 61 165 1 66 4 173 8 239 l6 119 36 -64 c20 -35 53 -93 74 -129 20
-36 46 -80 57 -99 88 -153 154 -254 178 -271 28 -20 40 -21 279 -18 240 3 251
4 272 24 13 13 23 39 26 68 5 39 1 53 -28 98 -30 48 -91 144 -277 433 -35 55
-77 119 -93 143 -16 24 -30 47 -32 51 -1 5 34 35 78 68 164 122 269 284 305
471 19 94 8 241 -23 331 -59 167 -190 299 -355 357 -130 45 -237 54 -582 52
-173 -1 -342 -4 -375 -6z m416 -62 c395 -19 595 -83 721 -232 76 -89 91 -128
96 -244 5 -121 -9 -178 -75 -306 -67 -131 -176 -246 -291 -308 -83 -45 -95
-56 -95 -88 0 -36 111 -232 330 -578 29 -45 50 -83 48 -85 -2 -2 -65 -2 -141
1 l-138 5 -32 55 c-17 30 -108 189 -202 354 -95 164 -172 301 -172 306 0 4 -9
19 -21 34 -22 28 -56 34 -91 15 -43 -23 -47 -59 -54 -426 -5 -235 -11 -350
-18 -355 -6 -4 -68 -8 -137 -8 l-126 0 -6 227 c-4 124 -7 543 -7 929 l0 703
53 4 c101 7 174 6 358 -3z"/>
<path d="M2470 3187 l-95 -12 -6 -155 c-4 -85 -16 -208 -28 -274 -12 -65 -21
-132 -21 -147 0 -65 69 -92 230 -90 172 1 276 38 335 119 82 112 109 265 65
358 -31 64 -115 151 -174 181 -61 32 -159 38 -306 20z m190 -98 c104 -28 116
-38 140 -115 27 -90 27 -154 -2 -181 -55 -48 -235 -131 -298 -135 l-35 -3 -7
85 c-4 47 -7 152 -6 234 l1 149 66 -7 c36 -3 100 -15 141 -27z"/>
</g>
</svg>
